# xmcd
# Track frame offsets:
# 150
# 18084
# 27038
# 38463
# 55972
# 70690
# 83436
# 96512
# 109504
# 123469
# 134105
# 146878
# 165598
# 184047
# 195067
# 206534
# 223835
# 239565
# 252954
#
# Disc length: 3640 seconds
# Revision: 0
# Processed by: cddbd v1.5.2PL0 Copyright (c) Steve Scherf et al.
# Submitted via: VisiTrax 2.11.2.271 - For more info visit www.synapsa.com
#
DISCID=050e3613
DTITLE=Various (1950's-2000's) Country Artists - Always On My Mind: The Roman
DTITLE=tic Side Of Country: CD5 of 5: *ReMastered Tracks
DYEAR=2006
DGENRE=Country
TTITLE0=Lee Greenwood - The Wind Beneath My Wings*
TTITLE1=Tammy Wynette - Yesterday*
TTITLE2=Ray Price - Raining In My Heart*
TTITLE3=Willie Nelson - Stardust*
TTITLE4=John Denver - Take Me Home Country Roads*
TTITLE5=Brenda Lee - I Left My Heart In San Francisco*
TTITLE6=Charlie Rich - Spanish Eyes*
TTITLE7=Billie Jo Spears - What The World Needs Now Is Love*
TTITLE8=Hank Williams Jnr. - Rainy Night In Georgia*
TTITLE9=Dwight Yoakham - Crazy Little Thing Called Love*
TTITLE10=Johnny Rodriguez - Something*
TTITLE11=Crystal Gayle - It Had To Be You*
TTITLE12=Kenny Rogers - My Funny Valentine*
TTITLE13=Don Williams - Reason To Believe*
TTITLE14=Don Gibson - Sea Of Heartbreak*
TTITLE15=Willie Nelson - Unchained Melody*
TTITLE16=Glen Campbell - He Ain't Heavy, He's My Brother*
TTITLE17=Dr Hook - A Little Bit More*
TTITLE18=Lonestar - Amazed*
EXTD=Compilation: Readers Digest: 2006
EXTT0=
EXTT1=
EXTT2=
EXTT3=
EXTT4=
EXTT5=
EXTT6=
EXTT7=
EXTT8=
EXTT9=
EXTT10=
EXTT11=
EXTT12=
EXTT13=
EXTT14=
EXTT15=
EXTT16=
EXTT17=
EXTT18=
PLAYORDER=
